<svg width="19" height="19" viewBox="0 0 19 19" fill="none" xmlns="http://www.w3.org/2000/svg">
<path d="M10.097 16.9022L9.11669 16.3388L11.3703 12.395H14.7507C15.0496 12.395 15.3362 12.2762 15.5475 12.0649C15.7588 11.8536 15.8776 11.567 15.8776 11.2682V4.50729C15.8776 4.20844 15.7588 3.92183 15.5475 3.71051C15.3362 3.49919 15.0496 3.38047 14.7507 3.38047H3.48263C3.18378 3.38047 2.89717 3.49919 2.68585 3.71051C2.47453 3.92183 2.35582 4.20844 2.35582 4.50729V11.2682C2.35582 11.567 2.47453 11.8536 2.68585 12.0649C2.89717 12.2762 3.18378 12.395 3.48263 12.395H8.55328V13.5218H3.48263C2.88493 13.5218 2.31171 13.2843 1.88907 12.8617C1.46644 12.4391 1.229 11.8659 1.229 11.2682V4.50729C1.229 3.90959 1.46644 3.33637 1.88907 2.91373C2.31171 2.4911 2.88493 2.25366 3.48263 2.25366H14.7507C15.3484 2.25366 15.9217 2.4911 16.3443 2.91373C16.7669 3.33637 17.0044 3.90959 17.0044 4.50729V11.2682C17.0044 11.8659 16.7669 12.4391 16.3443 12.8617C15.9217 13.2843 15.3484 13.5218 14.7507 13.5218H12.0239L10.097 16.9022Z" fill="white" fill-opacity="0.7"/>
<path d="M4.60938 5.63403H13.6239V6.76084H4.60938V5.63403ZM4.60938 9.01447H10.2434V10.1413H4.60938V9.01447Z" fill="white" fill-opacity="0.7"/>
</svg>
