<svg width="24" height="24" viewBox="0 0 24 24" fill="none" xmlns="http://www.w3.org/2000/svg">
<path d="M14.9995 7.49963L7.18934 15.4394C6.90804 15.7207 6.75 16.1023 6.75 16.5001C6.75 16.8979 6.90804 17.2794 7.18934 17.5608C7.47064 17.8421 7.85218 18.0001 8.25 18.0001C8.64783 18.0001 9.02936 17.8421 9.31066 17.5608L18.6208 8.12095C18.8993 7.84238 19.1203 7.51166 19.2711 7.14768C19.4219 6.78371 19.4995 6.3936 19.4995 5.99963C19.4995 5.60567 19.4219 5.21556 19.2711 4.85158C19.1203 4.48761 18.8993 4.15689 18.6208 3.87831C18.3422 3.59974 18.0115 3.37876 17.6475 3.228C17.2835 3.07723 16.8934 2.99963 16.4995 2.99963C16.1055 2.99963 15.7154 3.07723 15.3514 3.228C14.9874 3.37876 14.6567 3.59974 14.3781 3.87831L5.06802 13.3181C4.22411 14.162 3.75 15.3066 3.75 16.5001C3.75 17.6936 4.22411 18.8382 5.06802 19.6821C5.91193 20.526 7.05653 21.0001 8.25 21.0001C9.44348 21.0001 10.5881 20.526 11.432 19.6821L19.1245 11.9996" stroke="white" stroke-opacity="0.7" stroke-width="2" stroke-linecap="round" stroke-linejoin="round"/>
</svg>
