<svg width="24" height="24" viewBox="0 0 24 24" fill="none" xmlns="http://www.w3.org/2000/svg">
<path d="M9.00024 11.0001C9.79137 11.0001 10.5647 10.7655 11.2225 10.326C11.8803 9.88646 12.393 9.26175 12.6958 8.53084C12.9985 7.79994 13.0777 6.99567 12.9234 6.21975C12.769 5.44382 12.3881 4.73109 11.8287 4.17168C11.2693 3.61227 10.5565 3.23131 9.78061 3.07697C9.00468 2.92263 8.20042 3.00184 7.46951 3.30459C6.73861 3.60734 6.11389 4.12003 5.67437 4.77783C5.23484 5.43562 5.00024 6.20898 5.00024 7.00011C5.00024 8.06097 5.42167 9.07839 6.17182 9.82854C6.92196 10.5787 7.93938 11.0001 9.00024 11.0001ZM9.00024 5.00011C9.39581 5.00011 9.78249 5.11741 10.1114 5.33717C10.4403 5.55693 10.6966 5.86929 10.848 6.23474C10.9994 6.60019 11.039 7.00233 10.9618 7.39029C10.8846 7.77825 10.6942 8.13462 10.4145 8.41432C10.1348 8.69403 9.77839 8.88451 9.39042 8.96168C9.00246 9.03885 8.60033 8.99924 8.23488 8.84787C7.86943 8.69649 7.55707 8.44015 7.33731 8.11125C7.11754 7.78235 7.00024 7.39567 7.00024 7.00011C7.00024 6.46968 7.21096 5.96097 7.58603 5.58589C7.9611 5.21082 8.46981 5.00011 9.00024 5.00011Z" fill="white" fill-opacity="0.7"/>
<path d="M17 13C17.5933 13 18.1734 12.8241 18.6667 12.4944C19.1601 12.1648 19.5446 11.6963 19.7716 11.1481C19.9987 10.5999 20.0581 9.9967 19.9424 9.41475C19.8266 8.83281 19.5409 8.29826 19.1213 7.8787C18.7018 7.45915 18.1672 7.17342 17.5853 7.05767C17.0033 6.94191 16.4001 7.00132 15.8519 7.22839C15.3038 7.45545 14.8352 7.83997 14.5056 8.33331C14.1759 8.82666 14 9.40668 14 10C14 10.7957 14.3161 11.5587 14.8787 12.1213C15.4413 12.684 16.2044 13 17 13ZM17 9.00002C17.1978 9.00002 17.3911 9.05867 17.5556 9.16855C17.72 9.27844 17.8482 9.43461 17.9239 9.61734C17.9996 9.80007 18.0194 10.0011 17.9808 10.1951C17.9422 10.3891 17.847 10.5673 17.7071 10.7071C17.5673 10.847 17.3891 10.9422 17.1951 10.9808C17.0011 11.0194 16.8 10.9996 16.6173 10.9239C16.4346 10.8482 16.2784 10.72 16.1685 10.5556C16.0586 10.3911 16 10.1978 16 10C16 9.73481 16.1054 9.48045 16.2929 9.29292C16.4804 9.10538 16.7348 9.00002 17 9.00002Z" fill="white" fill-opacity="0.7"/>
<path d="M17 13.9997C15.8918 14.0009 14.8155 14.3703 13.94 15.0497C12.9605 14.0741 11.7141 13.4103 10.3578 13.1421C9.00159 12.874 7.59632 13.0134 6.31923 13.5429C5.04213 14.0723 3.95041 14.9681 3.18174 16.1172C2.41307 17.2663 2.00187 18.6172 2 19.9997C2 20.2649 2.10536 20.5193 2.29289 20.7068C2.48043 20.8944 2.73478 20.9997 3 20.9997C3.26522 20.9997 3.51957 20.8944 3.70711 20.7068C3.89464 20.5193 4 20.2649 4 19.9997C4 18.6736 4.52678 17.4019 5.46447 16.4642C6.40215 15.5265 7.67392 14.9997 9 14.9997C10.3261 14.9997 11.5979 15.5265 12.5355 16.4642C13.4732 17.4019 14 18.6736 14 19.9997C14 20.2649 14.1054 20.5193 14.2929 20.7068C14.4804 20.8944 14.7348 20.9997 15 20.9997C15.2652 20.9997 15.5196 20.8944 15.7071 20.7068C15.8946 20.5193 16 20.2649 16 19.9997C16.0024 18.8282 15.7064 17.6753 15.14 16.6497C15.5819 16.3005 16.1132 16.0828 16.6731 16.0214C17.233 15.96 17.7989 16.0575 18.306 16.3027C18.813 16.5479 19.2408 16.9309 19.5404 17.4078C19.84 17.8848 19.9993 18.4365 20 18.9997C20 19.2649 20.1054 19.5193 20.2929 19.7068C20.4804 19.8944 20.7348 19.9997 21 19.9997C21.2652 19.9997 21.5196 19.8944 21.7071 19.7068C21.8946 19.5193 22 19.2649 22 18.9997C22 17.6736 21.4732 16.4019 20.5355 15.4642C19.5979 14.5265 18.3261 13.9997 17 13.9997Z" fill="white" fill-opacity="0.7"/>
</svg>
