<svg width="24" height="24" viewBox="0 0 24 24" fill="none" xmlns="http://www.w3.org/2000/svg">
<path d="M9.00018 11.0001C9.7913 11.0001 10.5647 10.7655 11.2225 10.326C11.8803 9.88648 12.3929 9.26176 12.6957 8.53086C12.9984 7.79995 13.0777 6.99569 12.9233 6.21976C12.769 5.44384 12.388 4.73111 11.8286 4.1717C11.2692 3.61229 10.5565 3.23132 9.78054 3.07698C9.00461 2.92264 8.20035 3.00186 7.46944 3.30461C6.73854 3.60736 6.11382 4.12005 5.6743 4.77784C5.23477 5.43564 5.00018 6.209 5.00018 7.00012C5.00018 8.06099 5.4216 9.07841 6.17175 9.82855C6.92189 10.5787 7.93931 11.0001 9.00018 11.0001ZM9.00018 5.00012C9.39574 5.00012 9.78242 5.11742 10.1113 5.33718C10.4402 5.55695 10.6966 5.8693 10.8479 6.23476C10.9993 6.60021 11.0389 7.00234 10.9617 7.3903C10.8846 7.77827 10.6941 8.13463 10.4144 8.41434C10.1347 8.69404 9.77832 8.88452 9.39036 8.96169C9.00239 9.03887 8.60026 8.99926 8.23481 8.84788C7.86936 8.69651 7.557 8.44016 7.33724 8.11126C7.11747 7.78237 7.00018 7.39569 7.00018 7.00012C7.00018 6.46969 7.21089 5.96098 7.58596 5.58591C7.96103 5.21084 8.46974 5.00012 9.00018 5.00012Z" fill="#181924"/>
<path d="M17 13C17.5934 13 18.1734 12.8241 18.6668 12.4944C19.1601 12.1648 19.5446 11.6962 19.7717 11.1481C19.9987 10.5999 20.0582 9.99667 19.9424 9.41473C19.8266 8.83279 19.5409 8.29824 19.1214 7.87868C18.7018 7.45912 18.1673 7.1734 17.5853 7.05765C17.0034 6.94189 16.4002 7.0013 15.852 7.22836C15.3038 7.45543 14.8353 7.83994 14.5056 8.33329C14.176 8.82664 14 9.40666 14 10C14 10.7957 14.3161 11.5587 14.8787 12.1213C15.4413 12.6839 16.2044 13 17 13ZM17 9C17.1978 9 17.3912 9.05865 17.5556 9.16853C17.7201 9.27841 17.8482 9.43459 17.9239 9.61732C17.9996 9.80004 18.0194 10.0011 17.9808 10.1951C17.9422 10.3891 17.847 10.5673 17.7072 10.7071C17.5673 10.847 17.3891 10.9422 17.1951 10.9808C17.0012 11.0194 16.8001 10.9996 16.6174 10.9239C16.4346 10.8482 16.2785 10.72 16.1686 10.5556C16.0587 10.3911 16 10.1978 16 10C16 9.73478 16.1054 9.48043 16.2929 9.29289C16.4805 9.10536 16.7348 9 17 9Z" fill="#181924"/>
<path d="M17.0001 13.9997C15.8919 14.0009 14.8155 14.3703 13.9401 15.0497C12.9606 14.074 11.7141 13.4103 10.3579 13.1421C9.00166 12.8739 7.59639 13.0134 6.3193 13.5428C5.0422 14.0723 3.95048 14.968 3.18181 16.1171C2.41314 17.2662 2.00194 18.6172 2.00007 19.9997C2.00007 20.2649 2.10543 20.5193 2.29296 20.7068C2.4805 20.8943 2.73485 20.9997 3.00007 20.9997C3.26529 20.9997 3.51964 20.8943 3.70718 20.7068C3.89471 20.5193 4.00007 20.2649 4.00007 19.9997C4.00007 18.6736 4.52685 17.4018 5.46454 16.4642C6.40222 15.5265 7.67399 14.9997 9.00007 14.9997C10.3262 14.9997 11.5979 15.5265 12.5356 16.4642C13.4733 17.4018 14.0001 18.6736 14.0001 19.9997C14.0001 20.2649 14.1054 20.5193 14.293 20.7068C14.4805 20.8943 14.7349 20.9997 15.0001 20.9997C15.2653 20.9997 15.5196 20.8943 15.7072 20.7068C15.8947 20.5193 16.0001 20.2649 16.0001 19.9997C16.0025 18.8281 15.7065 17.6752 15.1401 16.6497C15.582 16.3005 16.1133 16.0827 16.6732 16.0214C17.2331 15.96 17.799 16.0575 18.306 16.3027C18.8131 16.5479 19.2409 16.9308 19.5405 17.4078C19.8401 17.8848 19.9994 18.4364 20.0001 18.9997C20.0001 19.2649 20.1054 19.5193 20.293 19.7068C20.4805 19.8943 20.7349 19.9997 21.0001 19.9997C21.2653 19.9997 21.5196 19.8943 21.7072 19.7068C21.8947 19.5193 22.0001 19.2649 22.0001 18.9997C22.0001 17.6736 21.4733 16.4018 20.5356 15.4642C19.5979 14.5265 18.3262 13.9997 17.0001 13.9997Z" fill="#181924"/>
</svg>
