<svg width="24" height="24" viewBox="0 0 24 24" fill="none" xmlns="http://www.w3.org/2000/svg">
<path d="M20.5814 11.3457L4.7456 2.47763C4.61238 2.40303 4.45956 2.37086 4.30757 2.38544C4.15557 2.40001 4.01165 2.46063 3.89503 2.55919C3.77841 2.65775 3.69465 2.78955 3.65495 2.93699C3.61525 3.08443 3.62149 3.24047 3.67284 3.38426L6.65982 11.7478C6.71808 11.9109 6.71808 12.0892 6.65982 12.2523L3.67284 20.6158C3.62149 20.7596 3.61525 20.9157 3.65495 21.0631C3.69465 21.2105 3.77841 21.3423 3.89503 21.4409C4.01165 21.5395 4.15558 21.6001 4.30757 21.6147C4.45956 21.6292 4.61238 21.5971 4.7456 21.5225L20.5814 12.6544C20.6977 12.5893 20.7946 12.4943 20.862 12.3793C20.9294 12.2643 20.9649 12.1334 20.9649 12C20.9649 11.8667 20.9294 11.7358 20.862 11.6208C20.7945 11.5058 20.6977 11.4108 20.5814 11.3457V11.3457Z" stroke="white" stroke-opacity="0.7" stroke-width="2" stroke-linecap="round" stroke-linejoin="round"/>
<path d="M6.75 12H12.75" stroke="white" stroke-opacity="0.7" stroke-width="2" stroke-linecap="round" stroke-linejoin="round"/>
</svg>
