<svg width="98" height="22" viewBox="0 0 98 22" fill="none" xmlns="http://www.w3.org/2000/svg">
<path d="M20.0575 0.485555H26.917C28.8056 7.66658 21.9995 13.6805 23.22 20.9818C19.7858 20.9818 18.0709 20.9818 14.6411 20.9818C12.6144 17.9659 12.6323 16.4558 12.6991 13.4399H12.316C11.0599 16.4558 10.4452 17.9659 11.2826 20.9818C7.86175 20.9818 6.15132 20.9818 2.73046 20.9818C-1.22937 14.7006 3.33178 7.08301 0 0.485555C2.74382 0.485555 4.11573 0.485555 6.85954 0.485555C9.63454 5.06501 8.40517 7.35474 7.81721 11.9342H8.00874C10.1646 7.35474 12.1735 5.06501 10.9619 0.485555H15.964C19.0686 5.06501 18.0041 7.35474 17.7413 11.9342H17.9328C19.7591 7.35474 21.6076 5.06501 20.0664 0.485555H20.0575Z" fill="#2AD4AF"/>
<path d="M32.9437 20.9818H26.0307C25.5942 13.4711 32.9303 7.94722 31.8301 0.485555H41.968C45.8922 6.87363 42.2531 14.9545 46.7697 20.9818H39.8567C38.9346 19.681 38.6451 19.0306 38.2442 17.7298H32.8323C32.6363 19.0306 32.623 19.681 32.9437 20.9818ZM37.4068 6.77117C36.5026 9.06536 35.7721 10.2147 34.663 12.5089H37.6696C37.7186 10.2147 37.9191 9.06536 37.7632 6.77117H37.4068Z" fill="#2AD4AF"/>
<path d="M57.7983 14.9456C57.8518 14.5937 57.8785 14.42 57.9497 14.0725H56.2839C56.6758 12.0589 57.05 11.0566 57.5578 9.0431H65.4552C64.346 13.4265 62.8806 15.6183 64.3549 20.0017C62.1011 20.9862 59.727 21.4762 56.9431 21.4762C55.0322 21.4762 53.3129 21.2491 51.8652 20.7947C50.4132 20.3403 49.166 19.6587 48.2707 18.7589C47.3754 17.859 46.8141 16.7364 46.6894 15.3955C46.5647 14.0547 46.8186 12.4955 47.3041 10.7092C47.8208 8.81591 48.3909 7.18993 48.8764 5.83124C49.3619 4.47255 49.843 3.36332 50.4621 2.4991C51.0813 1.63488 51.8875 1.00231 53.0367 0.601388C54.1814 0.200463 55.7137 0 57.6825 0C58.119 0 58.6491 0.0222736 59.2637 0.0668209C59.8784 0.111368 60.5109 0.178189 61.1524 0.258374C61.7938 0.338559 62.4084 0.432109 62.992 0.530113C63.5755 0.632571 64.0565 0.73503 64.4307 0.846398C64.885 2.85994 64.6979 3.86225 64.0921 5.87579C63.2147 5.72878 62.3773 5.61741 61.5844 5.53277C60.7916 5.45259 60.0432 5.40804 59.3528 5.40804C57.9141 5.40804 56.8941 5.51941 56.2928 5.73769C55.6914 5.95597 55.3529 6.39253 55.2371 7.04738C54.5823 10.7626 53.4242 12.6202 53.2371 16.3399H55.3975C56.1992 16.3399 56.7827 16.2553 57.148 16.0816C57.5132 15.9078 57.7181 15.5292 57.8072 14.9456H57.7983Z" fill="#2AD4AF"/>
<path d="M80.8179 20.9818C76.4438 20.9818 72.0742 20.9818 67.7002 20.9818C65.3706 14.0279 71.1834 7.21219 68.199 0.485555H74.7557C76.818 5.58622 74.2969 10.6869 73.4372 15.7341H79.9939C79.7934 17.8323 79.8202 18.8836 80.8135 20.9818H80.8179Z" fill="#2AD4AF"/>
<path d="M95.3388 13.2483H88.7821C88.5549 14.2418 88.457 14.7407 88.3634 15.7341C91.5749 15.7341 93.1829 15.7341 96.3989 15.7341C96.1984 17.8323 96.2252 18.8836 97.2185 20.9818C92.3544 20.9818 87.4904 20.9818 82.6263 20.9818C80.2968 14.0279 86.1096 7.21219 83.1252 0.485555C87.9358 0.485555 92.7419 0.485555 97.5525 0.485555C98.2162 2.58373 98.0781 3.63505 97.5525 5.73322H90.5014C90.3945 6.838 90.2787 7.39038 90.0159 8.49516H96.5726C96.1227 10.3973 95.7708 11.3462 95.3388 13.2483Z" fill="#2AD4AF"/>
</svg>
