<svg width="24" height="24" viewBox="0 0 24 24" fill="none" xmlns="http://www.w3.org/2000/svg">
<path fill-rule="evenodd" clip-rule="evenodd" d="M11.0722 3.45521C11.3943 3.16232 11.8141 3.00001 12.2494 3C12.6848 2.99999 13.1045 3.16226 13.4267 3.45513L20.9272 10.274C21.1076 10.4381 21.2518 10.638 21.3504 10.861C21.449 11.0839 21.5 11.3251 21.5 11.5689V20.2371C21.5 20.4669 21.4547 20.6945 21.3668 20.9068C21.2788 21.1191 21.1499 21.3121 20.9874 21.4746C20.8248 21.6371 20.6319 21.766 20.4195 21.8539C20.2072 21.9418 19.9796 21.9871 19.7498 21.9871L15.2492 21.9865C14.7851 21.9864 14.3401 21.802 14.0119 21.4738C13.6838 21.1456 13.4994 20.7005 13.4995 20.2365V15.9864H10.9995V20.2365C10.9995 20.7006 10.8151 21.1456 10.487 21.4738C10.1588 21.802 9.71376 21.9864 9.24968 21.9865L4.75023 21.987C4.52039 21.9871 4.2928 21.9418 4.08046 21.8539C3.86811 21.766 3.67517 21.6371 3.51264 21.4746C3.35012 21.3121 3.22119 21.1191 3.13323 20.9068C3.04527 20.6945 3 20.4669 3 20.237V11.5689C3 11.3251 3.05095 11.084 3.14957 10.861C3.24819 10.638 3.39232 10.4381 3.57271 10.2741L11.0722 3.45521ZM12.2495 5.08788L5 11.6795V19.987L8.99945 19.9865V15.7364C8.99945 15.2722 9.18383 14.8271 9.51201 14.4989C9.8402 14.1707 10.2853 13.9864 10.7495 13.9864H13.7495C14.2136 13.9864 14.6587 14.1707 14.9869 14.4989C15.3151 14.8271 15.4995 15.2722 15.4995 15.7364V19.9865L19.5 19.987V11.6795L12.2495 5.08788ZM12.4174 4.93524C12.4175 4.93515 12.4176 4.93506 12.4177 4.93497L12.2495 4.75L12.4177 4.93497L12.4174 4.93524Z" fill="white" fill-opacity="0.7"/>
</svg>
